
<?xml version="1.0" encoding="utf-8"?>
<!-- Svg Vector Icons : http://www.onlinewebfonts.com/icon -->
<!DOCTYPE svg PUBLIC "-//W3C//DTD SVG 1.1//EN" "http://www.w3.org/Graphics/SVG/1.1/DTD/svg11.dtd">
<svg version="1.1" xmlns="http://www.w3.org/2000/svg" xmlns:xlink="http://www.w3.org/1999/xlink" x="0px" y="0px" viewBox="0 0 1000 1000" enable-background="new 0 0 1000 1000" xml:space="preserve">
<metadata> Svg Vector Icons : http://www.onlinewebfonts.com/icon </metadata>
<g><g transform="translate(0.000000,511.000000) scale(0.100000,-0.100000)"><path d="M968.7,4982c-396-105-740.6-453.5-841.6-851.5c-25.7-106.9-29.7-568.3-25.7-4069.4l5.9-3948.6l45.5-118.8c138.6-368.3,499-687.1,851.5-760.4c148.5-29.7,7839.7-29.7,7988.3,0c400,83.2,802,485.2,885.2,885.2c29.7,148.5,29.7,7839.7,0,7988.3c-73.3,352.5-392.1,712.9-760.4,851.5l-118.8,45.5l-3960.4,4C1612.2,5011.6,1063.7,5007.7,968.7,4982z M8867.8,4675c235.6-53.5,510.9-269.3,613.9-479.2c104.9-217.8,101-11.9,101-4085.2c0-4146.6,7.9-3855.5-112.9-4095.1c-65.3-128.7-247.5-310.9-378.2-376.2c-231.7-116.8,11.9-110.9-4093.1-110.9s-3861.4-5.9-4093.1,110.9c-132.7,67.3-312.9,247.5-380.2,380.2c-116.8,231.7-110.9-11.9-110.9,4093.1c0,4103-5.9,3861.4,110.9,4093.1c104.9,207.9,342.6,396,580.2,463.4C1222.1,4700.8,8729.2,4708.7,8867.8,4675z"/><path d="M5018.2,2518.5c-465.4-61.4-863.4-295-1132.7-663.4l-43.6-59.4l-2,322.8v320.8h-346.5h-346.5V152.2V-2135h386.1h386.1v1382.2c0,1441.6,7.9,1588.1,91.1,1865.4c106.9,356.4,386.2,613.9,770.3,712.9c514.9,130.7,1005.9-43.6,1184.2-421.8c105-219.8,112.9-350.5,112.9-2017.9V-2135h388.1h386.1L6846-396.4c-7.9,1718.8-7.9,1738.7-51.5,1895.1c-69.3,249.5-190.1,475.3-328.7,615.8C6148.9,2429.4,5574.7,2589.8,5018.2,2518.5z"/></g></g>
</svg>