<svg version="1.1" id="Capa_1" xmlns="http://www.w3.org/2000/svg" xmlns:xlink="http://www.w3.org/1999/xlink" x="0px" y="0px"
	 viewBox="0 0 293.24 293.24" style="enable-background:new 0 0 293.24 293.24;" xml:space="preserve">
<path d="M264.385,0h-41.039c-11.046,0-20,8.954-20,20s8.954,20,20,20h0.52v174.402L65.231,8.024
	c-5.221-6.791-14.185-9.506-22.293-6.747c-8.109,2.756-13.563,10.37-13.563,18.936v232.658h-0.519c-11.046,0-20,8.954-20,20
	s8.954,20,20,20h41.039c11.046,0,20-8.954,20-20s-8.954-20-20-20h-0.519V79.05l158.634,206.378
	c3.859,5.021,9.766,7.813,15.859,7.813c2.148,0,4.32-0.347,6.434-1.065c8.109-2.756,13.564-10.37,13.564-18.936V40h0.519
	c11.046,0,20-8.954,20-20S275.431,0,264.385,0z"/>
<g>
</g>
<g>
</g>
<g>
</g>
<g>
</g>
<g>
</g>
<g>
</g>
<g>
</g>
<g>
</g>
<g>
</g>
<g>
</g>
<g>
</g>
<g>
</g>
<g>
</g>
<g>
</g>
<g>
</g>
</svg>
