
<svg xmlns="http://www.w3.org/2000/svg" version="1.1" xlink="http://www.w3.org/1999/xlink" xmlns:svgjs="http://svgjs.com/svgjs" width="300" height="50.60152894953249"><defs id="SvgjsDefs15179"></defs><g id="SvgjsG15180" transform="scale(0.6493506493506493)" opacity="1"><g id="SvgjsG15181" class="CIU1iwnTV" transform="translate(0, 0) scale(0.7792635458228001)" light-content="false" fill="#011628"><path d="M24 0h76v76c0 13.255-10.745 24-24 24H0V24C0 10.745 10.745 0 24 0z"></path></g><g id="SvgjsG15182" class="sBKXRBrlNS" transform="translate(9.406358920483724, 9.40606335230002) scale(0.5911363674131257)" light-content="true" fill="#2cc5f7"><path d="M24.777 38.979h-6.758A2.021 2.021 0 0 0 15.998 41v41.355c0 1.116.905 2.021 2.021 2.021h40.753a2.021 2.021 0 0 0 2.021-2.021V41a2.021 2.021 0 0 0-2.021-2.021H43.326V28.354H62.77a8.648 8.648 0 0 1 8.648 8.648v49.351a8.648 8.648 0 0 1-8.648 8.648H14.021a8.648 8.648 0 0 1-8.648-8.648V37.002a8.648 8.648 0 0 1 8.648-8.648h10.756v10.625z"></path><path d="M75.223 61.021h6.758A2.021 2.021 0 0 0 84.002 59V17.646a2.021 2.021 0 0 0-2.021-2.021H41.228a2.021 2.021 0 0 0-2.021 2.021V59c0 1.116.905 2.021 2.021 2.021h15.446v10.625H37.23a8.648 8.648 0 0 1-8.648-8.648v-49.35A8.648 8.648 0 0 1 37.23 5h48.749a8.648 8.648 0 0 1 8.648 8.648v49.351a8.648 8.648 0 0 1-8.648 8.648H75.223V61.021zM24.777 28.354v10.625h-6.758"></path></g><rect id="SvgjsRect15183" width="1.1726007370633205" height="77.92635458228001" fill="#011628" transform="translate(100.20576858648312, 0)" light-content="false"></rect><g id="SvgjsG15184" class="text" transform="translate(122.17778332774952, 36.649114914872214)" light-content="false" fill="#27343e"><path d="M35.85 -25.05L27.93 -2.15L20.05 -25.01L18.75 -25.05L10.83 -2.11L2.95 -25.05L1.48 -25.05L10.17 0L11.5 0L19.42 -22.62L27.3 0L28.67 0L37.36 -25.05Z M42.25 0L57.3 0L57.3 -1.37L43.73 -1.37L43.73 -12L56.6 -12L56.6 -13.4L43.73 -13.4L43.73 -23.67L57.3 -23.67L57.3 -25.05L42.25 -25.05Z M62.72 -25.05L62.72 0L70.43 0C74.34 0 77.37 -1.09 79.5 -3.27C81.64 -5.45 82.7 -8.55 82.7 -12.56C82.7 -16.57 81.64 -19.65 79.52 -21.81C77.4 -23.97 74.37 -25.05 70.43 -25.05ZM70.39 -1.34L64.16 -1.34L64.16 -23.71L70.39 -23.71C73.93 -23.71 76.6 -22.78 78.39 -20.91C80.19 -19.05 81.09 -16.26 81.09 -12.56C81.09 -8.85 80.19 -6.06 78.39 -4.17C76.6 -2.28 73.93 -1.34 70.39 -1.34Z M88.51 -25.05L88.51 0L96.21 0C100.13 0 103.15 -1.09 105.29 -3.27C107.42 -5.45 108.49 -8.55 108.49 -12.56C108.49 -16.57 107.43 -19.65 105.31 -21.81C103.18 -23.97 100.15 -25.05 96.21 -25.05ZM96.18 -1.34L89.95 -1.34L89.95 -23.71L96.18 -23.71C99.72 -23.71 102.39 -22.78 104.18 -20.91C105.97 -19.05 106.87 -16.26 106.87 -12.56C106.87 -8.85 105.97 -6.06 104.18 -4.17C102.39 -2.28 99.72 -1.34 96.18 -1.34Z M114.29 0L115.74 0L115.74 -25.05L114.29 -25.05Z M140.36 -25.05L140.36 -2.57L123.79 -25.05L122.56 -25.05L122.56 0L123.93 0L123.93 -22.55L140.54 0L141.73 0L141.73 -25.05Z M167.45 -12.63L159.15 -12.63L159.15 -11.19L166.08 -11.19L166.08 -2.43C165.11 -2.03 164.02 -1.71 162.79 -1.48C161.56 -1.24 160.29 -1.13 159 -1.13C155.82 -1.13 153.36 -2.11 151.65 -4.08C149.94 -6.05 149.08 -8.88 149.08 -12.56C149.08 -16.17 149.93 -18.96 151.62 -20.93C153.31 -22.9 155.69 -23.89 158.76 -23.89C160.28 -23.89 161.65 -23.64 162.87 -23.15C164.09 -22.65 165.31 -21.85 166.53 -20.72L167.27 -21.95C165.16 -24.2 162.36 -25.33 158.86 -25.33C156.52 -25.33 154.5 -24.82 152.8 -23.82C151.1 -22.81 149.79 -21.35 148.89 -19.44C147.99 -17.52 147.54 -15.23 147.54 -12.56C147.54 -9.89 147.99 -7.59 148.89 -5.66C149.79 -3.74 151.11 -2.27 152.83 -1.25C154.55 -0.23 156.61 0.28 159 0.28C160.62 0.28 162.22 0.12 163.79 -0.19C165.36 -0.51 166.58 -0.91 167.45 -1.41Z M182.79 -25.05L182.79 0L184.23 0L184.23 -11.47L192.04 -11.47C194.48 -11.47 196.4 -12.08 197.82 -13.3C199.24 -14.52 199.95 -16.18 199.95 -18.29C199.95 -20.4 199.25 -22.06 197.84 -23.25C196.43 -24.45 194.5 -25.05 192.04 -25.05ZM192 -12.91L184.23 -12.91L184.23 -23.67L192 -23.67C194.07 -23.67 195.64 -23.21 196.73 -22.27C197.82 -21.33 198.37 -20 198.37 -18.29C198.37 -16.58 197.82 -15.26 196.73 -14.32C195.64 -13.38 194.07 -12.91 192 -12.91Z M205.23 0L220 0L220 -1.34L206.67 -1.34L206.67 -25.05L205.23 -25.05Z M242.31 0L243.89 0L233.12 -25.05L231.68 -25.05L220.92 0L222.5 0L225.46 -6.93L239.32 -6.93ZM226.05 -8.34L232.39 -23.11L238.72 -8.34Z M266.3 -25.05L266.3 -2.57L249.73 -25.05L248.5 -25.05L248.5 0L249.87 0L249.87 -22.55L266.47 0L267.67 0L267.67 -25.05Z M292.29 -25.05L292.29 -2.57L275.73 -25.05L274.49 -25.05L274.49 0L275.87 0L275.87 -22.55L292.47 0L293.67 0L293.67 -25.05Z M300.49 0L315.55 0L315.55 -1.37L301.97 -1.37L301.97 -12L314.84 -12L314.84 -13.4L301.97 -13.4L301.97 -23.67L315.55 -23.67L315.55 -25.05L300.49 -25.05Z M339.82 0L336.58 -8.86C336.25 -9.83 335.83 -10.56 335.32 -11.06C334.8 -11.57 334.18 -11.88 333.45 -12C335.02 -12.42 336.24 -13.17 337.09 -14.25C337.95 -15.33 338.38 -16.67 338.38 -18.29C338.38 -20.47 337.67 -22.14 336.27 -23.31C334.86 -24.47 332.87 -25.05 330.29 -25.05L320.96 -25.05L320.96 0L322.41 0L322.41 -11.4L330.18 -11.4C331.63 -11.4 332.73 -11.19 333.47 -10.78C334.21 -10.37 334.8 -9.56 335.25 -8.34L338.31 0ZM330.32 -12.8L322.44 -12.8L322.44 -23.67L330.32 -23.67C334.64 -23.67 336.79 -21.89 336.79 -18.33C336.79 -16.52 336.25 -15.15 335.16 -14.21C334.07 -13.27 332.46 -12.8 330.32 -12.8Z"></path></g><g id="SvgjsG15185" class="text" transform="translate(122.75778332774951, 62.77732312003168)" light-content="false" fill="#27343e"><path d="M1.92 -0.65L7.95 -8.2L7.95 -8.79L1.16 -8.79L1.16 -8.16L7.04 -8.16L0.9 -0.49L0.9 0L8.16 0L8.16 -0.65Z M25.62 -8.79L24.88 -8.79L24.88 -7.14C24.62 -7.75 24.22 -8.21 23.69 -8.53C23.16 -8.85 22.52 -9.01 21.78 -9.01C21.01 -9.01 20.33 -8.82 19.73 -8.43C19.14 -8.05 18.68 -7.52 18.35 -6.82C18.02 -6.13 17.86 -5.33 17.86 -4.41C17.86 -3.5 18.02 -2.7 18.34 -2.01C18.67 -1.33 19.12 -0.8 19.72 -0.43C20.31 -0.06 21 0.12 21.78 0.12C22.52 0.12 23.16 -0.04 23.69 -0.36C24.22 -0.68 24.62 -1.15 24.88 -1.76L24.88 0L25.62 0ZM24.07 -1.61C23.53 -0.94 22.77 -0.6 21.8 -0.6C20.81 -0.6 20.04 -0.93 19.49 -1.6C18.93 -2.27 18.65 -3.21 18.65 -4.41C18.65 -5.63 18.93 -6.58 19.48 -7.26C20.03 -7.94 20.8 -8.28 21.78 -8.28C22.77 -8.28 23.53 -7.95 24.07 -7.29C24.61 -6.63 24.88 -5.68 24.88 -4.45C24.88 -3.23 24.61 -2.28 24.07 -1.61Z M42.68 -8.43C42.08 -8.82 41.4 -9.01 40.63 -9.01C39.86 -9.01 39.21 -8.83 38.67 -8.49C38.14 -8.14 37.74 -7.65 37.5 -7L37.36 -8.79L36.65 -8.79C36.75 -8.09 36.79 -7.28 36.79 -6.37L36.79 3.8L37.51 3.8L37.51 -1.85C37.77 -1.2 38.16 -0.71 38.69 -0.38C39.22 -0.04 39.86 0.12 40.63 0.12C41.4 0.12 42.09 -0.06 42.69 -0.44C43.28 -0.81 43.74 -1.34 44.07 -2.02C44.39 -2.7 44.55 -3.5 44.55 -4.41C44.55 -5.33 44.39 -6.13 44.06 -6.82C43.73 -7.52 43.27 -8.05 42.68 -8.43ZM42.92 -1.6C42.38 -0.93 41.61 -0.6 40.63 -0.6C39.63 -0.6 38.87 -0.93 38.33 -1.6C37.8 -2.27 37.53 -3.22 37.53 -4.45C37.53 -5.68 37.8 -6.63 38.33 -7.29C38.87 -7.95 39.64 -8.28 40.64 -8.28C41.62 -8.28 42.38 -7.94 42.92 -7.26C43.47 -6.58 43.74 -5.63 43.74 -4.41C43.74 -3.21 43.47 -2.27 42.92 -1.6Z M55.13 0L55.85 0L55.85 -12.95L55.13 -12.95Z M74.2 -8.79L73.46 -8.79L73.46 -7.14C73.2 -7.75 72.81 -8.21 72.28 -8.53C71.74 -8.85 71.11 -9.01 70.37 -9.01C69.59 -9.01 68.91 -8.82 68.32 -8.43C67.73 -8.05 67.27 -7.52 66.94 -6.82C66.61 -6.13 66.44 -5.33 66.44 -4.41C66.44 -3.5 66.61 -2.7 66.93 -2.01C67.25 -1.33 67.71 -0.8 68.3 -0.43C68.89 -0.06 69.58 0.12 70.37 0.12C71.11 0.12 71.74 -0.04 72.28 -0.36C72.81 -0.68 73.2 -1.15 73.46 -1.76L73.46 0L74.2 0ZM72.65 -1.61C72.11 -0.94 71.36 -0.6 70.38 -0.6C69.4 -0.6 68.63 -0.93 68.07 -1.6C67.51 -2.27 67.24 -3.21 67.24 -4.41C67.24 -5.63 67.51 -6.58 68.06 -7.26C68.61 -7.94 69.38 -8.28 70.37 -8.28C71.35 -8.28 72.11 -7.95 72.65 -7.29C73.19 -6.63 73.46 -5.68 73.46 -4.45C73.46 -3.23 73.19 -2.28 72.65 -1.61Z M92.36 -5.66C92.36 -7.89 91.29 -9.01 89.16 -9.01C88.44 -9.01 87.81 -8.84 87.26 -8.52C86.71 -8.2 86.31 -7.73 86.06 -7.12L85.94 -8.79L85.24 -8.79C85.33 -8.09 85.38 -7.28 85.38 -6.37L85.38 0L86.1 0L86.1 -5.12C86.1 -6.09 86.38 -6.87 86.95 -7.44C87.52 -8.01 88.28 -8.3 89.23 -8.3C90.06 -8.3 90.67 -8.09 91.05 -7.65C91.43 -7.22 91.62 -6.53 91.62 -5.59L91.62 0L92.36 0Z M110.25 -8.79L109.53 -8.79L109.53 -3.78C109.53 -2.82 109.26 -2.05 108.7 -1.47C108.14 -0.89 107.4 -0.6 106.47 -0.6C105.69 -0.6 105.1 -0.82 104.72 -1.26C104.34 -1.7 104.15 -2.38 104.15 -3.31L104.15 -8.79L103.43 -8.79L103.43 -3.24C103.43 -2.13 103.69 -1.3 104.22 -0.73C104.75 -0.16 105.52 0.12 106.53 0.12C107.19 0.12 107.8 -0.03 108.33 -0.34C108.86 -0.65 109.27 -1.1 109.55 -1.67L109.55 0L110.25 0Z M119.88 3.13C119.61 3.13 119.33 3.08 119.02 2.97L119.02 3.71C119.41 3.79 119.72 3.83 119.97 3.83C120.64 3.83 121.17 3.64 121.56 3.24C121.96 2.84 122.15 2.23 122.15 1.41L122.15 -8.79L121.43 -8.79L121.43 1.18C121.43 1.92 121.29 2.43 121.02 2.71C120.74 2.99 120.36 3.13 119.88 3.13ZM121.24 -12.31L121.24 -11.19L122.38 -11.19L122.38 -12.31Z M145.3 -1.07C146.09 -0.28 147.18 0.12 148.57 0.12C149.56 0.12 150.36 -0.1 150.95 -0.55C151.54 -0.99 151.84 -1.57 151.84 -2.29C151.84 -2.86 151.65 -3.34 151.26 -3.73C150.87 -4.12 150.29 -4.4 149.52 -4.57L148 -4.94C147.47 -5.07 147.07 -5.27 146.81 -5.54C146.55 -5.81 146.42 -6.17 146.42 -6.61C146.42 -7.14 146.62 -7.55 147.03 -7.84C147.43 -8.14 148 -8.28 148.74 -8.28C149.25 -8.28 149.71 -8.19 150.13 -8.01C150.55 -7.83 150.97 -7.56 151.36 -7.19L151.72 -7.83C151.4 -8.2 150.98 -8.49 150.46 -8.7C149.94 -8.9 149.36 -9.01 148.74 -9.01C147.78 -9.01 147.02 -8.78 146.45 -8.32C145.88 -7.86 145.59 -7.26 145.59 -6.51C145.59 -5.97 145.8 -5.49 146.21 -5.07C146.62 -4.64 147.16 -4.36 147.83 -4.2L149.32 -3.85C149.92 -3.7 150.36 -3.5 150.63 -3.25C150.89 -2.99 151.03 -2.66 151.03 -2.23C151.03 -1.71 150.82 -1.3 150.41 -1.03C150 -0.75 149.41 -0.62 148.62 -0.62C148 -0.62 147.46 -0.69 147.01 -0.85C146.56 -1.01 146.1 -1.29 145.63 -1.69Z M174.4 -8.79L171.62 -0.88L168.84 -8.79L167.92 -8.79L165.06 -0.86L162.36 -8.79L161.56 -8.79L164.63 0L165.53 0L168.36 -7.9L171.18 0L172.06 0L175.17 -8.79Z M186.71 -0.44C187.31 -0.06 188 0.12 188.77 0.12C189.55 0.12 190.23 -0.06 190.82 -0.44C191.41 -0.81 191.87 -1.35 192.19 -2.04C192.52 -2.73 192.68 -3.54 192.68 -4.45C192.68 -5.36 192.52 -6.16 192.19 -6.85C191.87 -7.54 191.41 -8.07 190.82 -8.44C190.23 -8.82 189.55 -9.01 188.77 -9.01C188 -9.01 187.31 -8.82 186.71 -8.44C186.12 -8.07 185.66 -7.54 185.33 -6.85C185.01 -6.16 184.85 -5.36 184.85 -4.45C184.85 -3.54 185.01 -2.73 185.33 -2.04C185.66 -1.35 186.12 -0.81 186.71 -0.44ZM191.07 -1.6C190.52 -0.93 189.75 -0.6 188.75 -0.6C187.76 -0.6 186.99 -0.93 186.45 -1.59C185.91 -2.25 185.64 -3.21 185.64 -4.45C185.64 -5.66 185.92 -6.6 186.48 -7.27C187.03 -7.95 187.8 -8.28 188.77 -8.28C189.75 -8.28 190.51 -7.94 191.06 -7.26C191.61 -6.58 191.89 -5.65 191.89 -4.45C191.89 -3.22 191.61 -2.27 191.07 -1.6Z M201.71 3.13C201.44 3.13 201.15 3.08 200.85 2.97L200.85 3.71C201.23 3.79 201.55 3.83 201.8 3.83C202.46 3.83 202.99 3.64 203.39 3.24C203.78 2.84 203.98 2.23 203.98 1.41L203.98 -8.79L203.26 -8.79L203.26 1.18C203.26 1.92 203.12 2.43 202.84 2.71C202.57 2.99 202.19 3.13 201.71 3.13ZM203.06 -12.31L203.06 -11.19L204.2 -11.19L204.2 -12.31Z M215.4 -4.59L222.24 -4.59L222.24 -4.8C222.24 -6.13 221.92 -7.16 221.28 -7.9C220.64 -8.64 219.76 -9.01 218.63 -9.01C217.84 -9.01 217.13 -8.82 216.52 -8.43C215.9 -8.05 215.42 -7.52 215.08 -6.82C214.74 -6.13 214.57 -5.34 214.57 -4.43C214.57 -3.01 214.95 -1.9 215.71 -1.09C216.46 -0.28 217.49 0.12 218.79 0.12C219.43 0.12 220.04 0.01 220.63 -0.21C221.22 -0.43 221.71 -0.73 222.08 -1.11L221.73 -1.74C221.26 -1.34 220.79 -1.05 220.31 -0.87C219.83 -0.69 219.31 -0.6 218.76 -0.6C217.68 -0.6 216.85 -0.93 216.27 -1.59C215.69 -2.25 215.4 -3.2 215.4 -4.43ZM216.5 -7.54C217.05 -8.07 217.77 -8.34 218.63 -8.34C219.49 -8.34 220.17 -8.08 220.66 -7.55C221.15 -7.03 221.43 -6.29 221.5 -5.31L215.45 -5.31C215.59 -6.26 215.94 -7 216.5 -7.54Z M257.27 -8.79L254.5 -0.88L251.72 -8.79L250.8 -8.79L247.93 -0.86L245.24 -8.79L244.43 -8.79L247.51 0L248.41 0L251.24 -7.9L254.06 0L254.94 0L258.05 -8.79Z M268.56 -4.59L275.4 -4.59L275.4 -4.8C275.4 -6.13 275.08 -7.16 274.44 -7.9C273.8 -8.64 272.92 -9.01 271.79 -9.01C271 -9.01 270.29 -8.82 269.67 -8.43C269.06 -8.05 268.58 -7.52 268.24 -6.82C267.9 -6.13 267.73 -5.34 267.73 -4.43C267.73 -3.01 268.11 -1.9 268.86 -1.09C269.62 -0.28 270.65 0.12 271.95 0.12C272.58 0.12 273.2 0.01 273.79 -0.21C274.38 -0.43 274.86 -0.73 275.24 -1.11L274.89 -1.74C274.42 -1.34 273.94 -1.05 273.46 -0.87C272.98 -0.69 272.47 -0.6 271.92 -0.6C270.84 -0.6 270.01 -0.93 269.43 -1.59C268.85 -2.25 268.56 -3.2 268.56 -4.43ZM269.66 -7.54C270.21 -8.07 270.92 -8.34 271.79 -8.34C272.65 -8.34 273.32 -8.08 273.82 -7.55C274.31 -7.03 274.59 -6.29 274.66 -5.31L268.61 -5.31C268.75 -6.26 269.1 -7 269.66 -7.54Z M285.4 -1.07C286.19 -0.28 287.28 0.12 288.67 0.12C289.66 0.12 290.46 -0.1 291.05 -0.55C291.64 -0.99 291.94 -1.57 291.94 -2.29C291.94 -2.86 291.75 -3.34 291.36 -3.73C290.97 -4.12 290.39 -4.4 289.62 -4.57L288.1 -4.94C287.57 -5.07 287.17 -5.27 286.91 -5.54C286.65 -5.81 286.52 -6.17 286.52 -6.61C286.52 -7.14 286.72 -7.55 287.13 -7.84C287.53 -8.14 288.1 -8.28 288.84 -8.28C289.35 -8.28 289.81 -8.19 290.23 -8.01C290.65 -7.83 291.07 -7.56 291.46 -7.19L291.82 -7.83C291.5 -8.2 291.08 -8.49 290.56 -8.7C290.04 -8.9 289.46 -9.01 288.84 -9.01C287.88 -9.01 287.12 -8.78 286.55 -8.32C285.98 -7.86 285.69 -7.26 285.69 -6.51C285.69 -5.97 285.9 -5.49 286.31 -5.07C286.72 -4.64 287.26 -4.36 287.93 -4.2L289.42 -3.85C290.02 -3.7 290.46 -3.5 290.73 -3.25C290.99 -2.99 291.13 -2.66 291.13 -2.23C291.13 -1.71 290.92 -1.3 290.51 -1.03C290.1 -0.75 289.51 -0.62 288.72 -0.62C288.1 -0.62 287.56 -0.69 287.11 -0.85C286.66 -1.01 286.2 -1.29 285.73 -1.69Z M302.89 -4.59L309.73 -4.59L309.73 -4.8C309.73 -6.13 309.41 -7.16 308.77 -7.9C308.13 -8.64 307.25 -9.01 306.12 -9.01C305.33 -9.01 304.62 -8.82 304 -8.43C303.39 -8.05 302.91 -7.52 302.57 -6.82C302.23 -6.13 302.06 -5.34 302.06 -4.43C302.06 -3.01 302.44 -1.9 303.19 -1.09C303.95 -0.28 304.98 0.12 306.28 0.12C306.91 0.12 307.53 0.01 308.12 -0.21C308.71 -0.43 309.19 -0.73 309.57 -1.11L309.22 -1.74C308.75 -1.34 308.27 -1.05 307.79 -0.87C307.31 -0.69 306.8 -0.6 306.25 -0.6C305.17 -0.6 304.34 -0.93 303.76 -1.59C303.18 -2.25 302.89 -3.2 302.89 -4.43ZM303.99 -7.54C304.54 -8.07 305.25 -8.34 306.12 -8.34C306.98 -8.34 307.65 -8.08 308.15 -7.55C308.64 -7.03 308.92 -6.29 308.99 -5.31L302.94 -5.31C303.08 -6.26 303.43 -7 303.99 -7.54Z M320.25 0L320.97 0L320.97 -12.95L320.25 -12.95Z M332.4 -4.59L339.24 -4.59L339.24 -4.8C339.24 -6.13 338.92 -7.16 338.28 -7.9C337.64 -8.64 336.76 -9.01 335.63 -9.01C334.84 -9.01 334.13 -8.82 333.51 -8.43C332.9 -8.05 332.42 -7.52 332.08 -6.82C331.74 -6.13 331.57 -5.34 331.57 -4.43C331.57 -3.01 331.95 -1.9 332.7 -1.09C333.46 -0.28 334.49 0.12 335.79 0.12C336.43 0.12 337.04 0.01 337.63 -0.21C338.22 -0.43 338.71 -0.73 339.08 -1.11L338.73 -1.74C338.26 -1.34 337.79 -1.05 337.3 -0.87C336.82 -0.69 336.31 -0.6 335.76 -0.6C334.68 -0.6 333.85 -0.93 333.27 -1.59C332.69 -2.25 332.4 -3.2 332.4 -4.43ZM333.5 -7.54C334.05 -8.07 334.77 -8.34 335.63 -8.34C336.49 -8.34 337.16 -8.08 337.66 -7.55C338.15 -7.03 338.43 -6.29 338.5 -5.31L332.45 -5.31C332.59 -6.26 332.94 -7 333.5 -7.54Z"></path></g></g></svg>
