<svg id="Capa_1" enable-background="new 0 0 512 512" height="512" viewBox="0 0 512 512" width="512" xmlns="http://www.w3.org/2000/svg"><g><path d="m334.024 21.526-76.964 4.984-76.893-7.572c-74.587 44.685-120.167 144.884-120.167 233.492 0 41.21 9.48 77.67 28.17 108.37 2.83 4.64 7.77 7.2 12.83 7.2h308c5.06 0 10-2.56 12.83-7.2 18.69-30.7 28.17-67.16 28.17-108.37 0-87.069-43.984-185.098-115.976-230.904z" fill="#fff5f5"/><path d="m334.026 21.526-76.966 4.984v341.49h151.94c5.06 0 10-2.56 12.83-7.2 18.69-30.7 28.17-67.16 28.17-108.37 0-87.069-43.983-185.097-115.974-230.904z" fill="#efe2dd"/><path d="m392 330c0 6.85-1.15 13.58-3.42 20-2.17 6.16-7.96 10-14.14 10h-234.88c-6.18 0-11.97-3.84-14.14-10-2.27-6.42-3.42-13.15-3.42-20 0-14.98 5.59-29.31 15.73-40.34 6.51-7.08 14.27-18.52 14.27-32.78v-91.88c0-8.28 6.72-15 15-15h180c8.28 0 15 6.72 15 15v91.88c0 14.26 7.76 25.7 14.27 32.78 10.14 11.03 15.73 25.36 15.73 40.34z" fill="#d24b8c"/><path d="m392 330c0 6.85-1.15 13.58-3.42 20-2.17 6.16-7.96 10-14.14 10h-117.38v-210h89.94c8.28 0 15 6.72 15 15v91.88c0 14.26 7.76 25.7 14.27 32.78 10.14 11.03 15.73 25.36 15.73 40.34z" fill="#aa3c6e"/><path d="m452 405v92c0 8.28-6.72 15-15 15h-45l-134.94-96.99-.06-.04-135 97.03h-45c-8.28 0-15-6.72-15-15v-92c0-41.35 33.65-75 75-75h60c8.27 0 15-6.73 15-15v-35.12c0-8.29 6.72-15 15-15h60c8.28 0 15 6.71 15 15v35.12c0 8.27 6.73 15 15 15h60c41.35 0 75 33.65 75 75z" fill="#ffbfab"/><path d="m452 405v92c0 8.28-6.72 15-15 15h-45l-134.94-96.99v-150.13h29.94c8.28 0 15 6.71 15 15v35.12c0 8.27 6.73 15 15 15h60c41.35 0 75 33.65 75 75z" fill="#f89580"/><path d="m362 75v60c0 8.28-6.72 15-15 15h-180c-8.28 0-15-6.72-15-15v-60c0-41.35 33.65-75 75-75h60c41.35 0 75 33.65 75 75z" fill="#d24b8c"/><path d="m362 75v60c0 8.28-6.72 15-15 15h-89.94v-150h29.94c41.35 0 75 33.65 75 75z" fill="#aa3c6e"/><path d="m392 405v107h-270v-107c0-8.28 6.72-15 15-15h47.57c26.6 0 51.85 8.78 72.43 24.97.02-.02.04-.03.06-.05 20.57-16.16 45.8-24.92 72.37-24.92h47.57c8.28 0 15 6.72 15 15z" fill="#fff5f5"/><path d="m392 405v107h-134.94v-97.08c20.57-16.16 45.8-24.92 72.37-24.92h47.57c8.28 0 15 6.72 15 15z" fill="#efe2dd"/><g><g><path d="m317 135c-32.28 0-58.59-25.48-59.94-57.42-.04-.86-.06-1.72-.06-2.58 0 33.14-26.86 60-60 60h-45v60c0 58.78 47.74 105 104.94 105h.12c60.18-.07 104.94-52.55 104.94-110.87v-54.13z" fill="#ffe1ba"/></g></g><path d="m362 135v54.13c0 58.32-44.76 110.8-104.94 110.87v-222.42c1.35 31.94 27.66 57.42 59.94 57.42z" fill="#ffbfab"/></g></svg>