<?xml version="1.0" encoding="iso-8859-1"?>
<!-- Generator: Adobe Illustrator 19.0.0, SVG Export Plug-In . SVG Version: 6.00 Build 0)  -->
<svg version="1.1" id="Layer_1" xmlns="http://www.w3.org/2000/svg" xmlns:xlink="http://www.w3.org/1999/xlink" x="0px" y="0px"
	 viewBox="0 0 496 496" style="enable-background:new 0 0 496 496;" xml:space="preserve">
<rect x="200" y="312" style="fill:#D6D6D6;" width="112" height="152"/>
<path style="fill:#00233F;" d="M336,112.8c0,39.2-32,71.2-71.2,71.2H232c-40,0-72-32-72-71.2V112c0-40,32-72,71.2-72H264
	c40,0,72,32,72,71.2V112.8z"/>
<rect x="192" y="216" style="fill:#F9BDA0;" width="112" height="96"/>
<polygon style="fill:#E28F71;" points="304,312 248,312 188.8,216 304,216 "/>
<path style="fill:#FCCCB9;" d="M336,137.6c0,69.6-43.2,132.8-88,132.8s-88-63.2-88-132.8S203.2,56,248,56S336,68,336,137.6z"/>
<path style="fill:#F9BDA0;" d="M248,56c44.8,0,88,12,88,81.6s-43.2,132.8-88,132.8"/>
<path style="fill:#00233F;" d="M274.4,48c0,8.8-7.2,16-16,16h-20.8c-8.8,0-16-7.2-16-16l0,0c0-8.8,7.2-16,16-16h20.8
	C267.2,32,274.4,39.2,274.4,48L274.4,48z"/>
<polygon style="fill:#0C537A;" points="185.6,287.2 32,343.2 0,464 242.4,464 "/>
<polygon style="fill:#00233F;" points="185.6,287.2 60,359.2 32,464 242.4,464 "/>
<polygon style="fill:#D6D6D6;" points="184.8,275.2 148.8,290.4 173.6,359.2 240,460.8 240,316 "/>
<polygon style="fill:#FFFFFF;" points="184.8,275.2 247.2,316 176,352.8 "/>
<polygon style="fill:#0C537A;" points="310.4,287.2 464,343.2 496,464 253.6,464 "/>
<polygon style="fill:#00233F;" points="310.4,287.2 436,359.2 464,464 253.6,464 "/>
<polygon style="fill:#D6D6D6;" points="311.2,275.2 347.2,290.4 322.4,359.2 256,460.8 256,316 "/>
<polygon style="fill:#FFFFFF;" points="311.2,275.2 249.6,316 320.8,352.8 "/>
<polygon style="fill:#EF4391;" points="240,350.4 240,329.6 184,306.4 184,370.4 "/>
<polygon style="fill:#D81665;" points="240,350.4 240,329.6 193.6,332.8 184,370.4 "/>
<polygon style="fill:#BC085A;" points="242.4,349.6 240,329.6 204,350.4 184,370.4 "/>
<polygon style="fill:#EF4391;" points="256,350.4 256,329.6 312,306.4 312,370.4 "/>
<polygon style="fill:#D81665;" points="256,350.4 256,329.6 302.4,332.8 312,370.4 "/>
<polygon style="fill:#BC085A;" points="253.6,349.6 256,329.6 292,350.4 312,370.4 "/>
<path style="fill:#911955;" d="M343.2,404.8c0-11.2,7.2-20,16-20s16,8.8,16,20s-7.2,5.6-16,5.6C349.6,409.6,343.2,415.2,343.2,404.8
	z"/>
<g>
	<path style="fill:#AF2564;" d="M396,404.8c0-11.2-7.2-20-16-20s-16,8.8-16,20s7.2,5.6,16,5.6S396,415.2,396,404.8z"/>
	<path style="fill:#AF2564;" d="M389.6,396c0,12.8-8.8,23.2-20.8,23.2S348,408.8,348,396c0-12.8,9.6-6.4,20.8-6.4
		S389.6,383.2,389.6,396z"/>
</g>
<path style="fill:#911955;" d="M369.6,389.6c11.2,0,20.8-6.4,20.8,6.4s-8.8,23.2-20.8,23.2"/>
<path style="fill:#12AF6B;" d="M376,441.6c0,3.2-3.2,6.4-6.4,6.4h-3.2c-3.2,0-6.4-3.2-6.4-6.4v-27.2c0-3.2,3.2-6.4,6.4-6.4h3.2
	c3.2,0,6.4,3.2,6.4,6.4V441.6z"/>
<path style="fill:#028952;" d="M360,414.4c0-6.4,4.8-6.4,8-6.4h1.6c3.2,0,6.4,3.2,6.4,6.4v27.2c0,3.2-3.2,6.4-6.4,6.4l0,0"/>
<path style="fill:#E250A0;" d="M375.2,440H360c0,0-12.8,2.4-14.4-5.6c-0.8-8,0-34.4-11.2-37.6c0,0,8.8-5.6,19.2,2.4
	c9.6,8,3.2,8.8,19.2,16.8C376.8,417.6,375.2,440,375.2,440z"/>
<path style="fill:#CC3B84;" d="M352.8,398.4c9.6,8,3.2,8,19.2,16c4.8,2.4,2.4,25.6,2.4,25.6H360"/>
<path style="fill:#AF2564;" d="M364,440h15.2c0,0,12.8,2.4,14.4-5.6c0.8-8,0-34.4,11.2-37.6c0,0-8.8-5.6-19.2,2.4
	c-9.6,8-3.2,8.8-19.2,16.8C362.4,417.6,364,440,364,440z"/>
<path style="fill:#911955;" d="M360,440h19.2c0,0,12.8,2.4,14.4-5.6c0.8-8,0-34.4,11.2-37.6c0,0-10.4-7.2-20.8,0.8"/>
<g>
	<circle style="fill:#12AF6B;" cx="248" cy="383.2" r="6.4"/>
	<circle style="fill:#12AF6B;" cx="248" cy="418.4" r="6.4"/>
</g>
<path style="fill:#D81665;" d="M256,344.8c0,4-3.2,7.2-7.2,7.2H248c-4,0-7.2-3.2-7.2-7.2V328c0-4,3.2-7.2,7.2-7.2h0.8
	c4,0,7.2,3.2,7.2,7.2V344.8z"/>
<path style="fill:#BC085A;" d="M256,328v20c0,4-4,7.2-8,7.2l0,0c-4,0-8-3.2-8-7.2v-20"/>
<g>
</g>
<g>
</g>
<g>
</g>
<g>
</g>
<g>
</g>
<g>
</g>
<g>
</g>
<g>
</g>
<g>
</g>
<g>
</g>
<g>
</g>
<g>
</g>
<g>
</g>
<g>
</g>
<g>
</g>
</svg>
